<svg width="200" height="200" viewBox="0 0 200 200" fill="none" xmlns="http://www.w3.org/2000/svg">
<g clip-path="url(#clip0_4078_168)">
<path d="M85.5221 60.6086C74.4584 60.6086 63.4615 65.1643 55.6381 72.9877C50.7092 77.9166 47.0811 84.1047 45.0689 90.7756C40.2326 91.6885 35.6646 94.0492 32.1824 97.5314C27.6426 102.071 25 108.45 25 114.869C25 121.289 27.6426 127.67 32.1824 132.209C36.7217 136.749 43.102 139.391 49.5221 139.391H159.348C163.446 139.391 167.519 137.705 170.416 134.808C173.314 131.91 175 127.837 175 123.739C175 119.641 173.314 115.57 170.417 112.673C167.537 109.793 163.496 108.112 159.423 108.091C158.629 100.667 155.265 93.5201 149.981 88.2361C143.897 82.1517 135.344 78.6086 126.739 78.6086C124.65 78.6086 122.566 78.823 120.517 79.2262C119.02 76.9854 117.309 74.896 115.406 72.9877C107.583 65.1643 96.5858 60.6086 85.5221 60.6086Z" fill="#d1d1d1ff" fill-opacity="0.5"/>
</g>
<defs>
<clipPath id="clip0_4078_168">
<rect width="150" height="150" fill="none" transform="translate(25 25)"/>
</clipPath>
</defs>
</svg>
